<?xml version="1.0" encoding="UTF-8" standalone="no"?>
<svg xmlns="http://www.w3.org/2000/svg" viewBox="0 0 436 94">
<!--Copyright © 2019 Apple Inc. All rights reserved.-->
  <defs>
    <radialGradient id="a" cy="44.467%" r="222.449%" fx="50%" fy="44.467%" gradientTransform="matrix(.22477 0 0 .18868 .388 .36)">
      <stop offset="0%" stop-color="#FFF"/>
      <stop offset="53.383%" stop-color="#FFF" stop-opacity=".962"/>
      <stop offset="100%" stop-color="#FFF" stop-opacity="0"/>
    </radialGradient>
  </defs>
  <ellipse cx="218" cy="53" fill="url(#a)" rx="218" ry="49"/>
  <path fill="#34A9DA" d="M80.4277 41.9199C80.4277 39.2959 80.0587 37.3279 79.3237 36.0159 78.5877 34.7049 77.3867 34.0479 75.7237 34.0479 73.4827 34.0479 71.6587 35.1369 70.2517 37.3119 68.8437 39.4879 67.7557 42.2729 66.9877 45.6639L80.2357 45.6639C80.3637 43.8089 80.4277 42.5609 80.4277 41.9199M59.0677 34.8639C62.4277 28.1119 68.2027 24.7349 76.3957 24.7349 86.8267 24.7349 92.0437 30.4639 92.0437 41.9199 92.0437 46.2729 91.6917 50.3049 90.9877 54.0159L65.7397 54.0159C65.6107 55.3589 65.5477 56.8329 65.5477 58.4319 65.5477 61.7609 65.9637 64.2249 66.7957 65.8239 67.6267 67.4239 68.9707 68.2239 70.8277 68.2239 72.6187 68.2239 74.1397 67.3589 75.3877 65.6319 76.6357 63.9029 77.5477 61.6639 78.1237 58.9119L89.9317 58.9119C87.1147 71.3289 80.5867 77.5359 70.3477 77.5359 64.8427 77.5359 60.7477 76.0809 58.0597 73.1679 55.3717 70.2559 54.0277 65.8239 54.0277 59.8719 54.0277 49.9519 55.7077 41.6169 59.0677 34.8639M100.4912 52.9121C101.7062 44.4331 102.5382 38.6561 102.9872 35.5841L97.8992 35.5841 99.2432 25.8881 104.3312 25.8881 106.2512 11.6801 118.2512 11.6801 115.6592 25.8881 122.9552 25.8881 121.6112 35.5841 114.4112 35.5841C113.9632 38.5281 113.1782 44.0161 112.0592 52.0481 110.9392 60.0801 110.3792 64.2881 110.3792 64.6721 110.3792 66.7841 111.5312 67.8401 113.8352 67.8401L117.0032 67.8401 115.8512 76.3841C115.0182 76.7031 113.9142 76.9741 112.5392 77.2001 111.1622 77.4231 109.9302 77.5361 108.8432 77.5361 105.2582 77.5361 102.6662 76.5761 101.0672 74.6561 99.4672 72.7351 98.6672 70.2401 98.6672 67.1681 98.6672 66.1441 99.2752 61.3921 100.4912 52.9121M124.2988 54.0156 136.9708 54.0156C136.6498 55.2966 136.4908 56.8326 136.4908 58.6236 136.4908 60.8656 137.2108 62.8166 138.6508 64.4796 140.0908 66.1446 142.6978 66.9756 146.4748 66.9756 149.7388 66.9756 152.2978 66.1446 154.1548 64.4796 156.0098 62.8166 156.9388 60.7996 156.9388 58.4316 156.9388 56.5116 156.4108 54.8656 155.3548 53.4876 154.2988 52.1126 152.9858 50.9766 151.4188 50.0796 149.8498 49.1846 147.6578 48.0966 144.8428 46.8156 141.4498 45.2806 138.7138 43.8726 136.6348 42.5916 134.5538 41.3126 132.7778 39.5836 131.3068 37.4086 129.8338 35.2326 129.0988 32.5116 129.0988 29.2476 129.0988 25.7916 129.8498 22.5606 131.3548 19.5516 132.8578 16.5436 135.2748 14.0966 138.6028 12.2076 141.9298 10.3206 146.1868 9.3756 151.3708 9.3756 159.0508 9.3756 164.3938 11.2326 167.4028 14.9436 170.4098 18.6566 171.9148 23.6486 171.9148 29.9196L159.5308 29.9196C159.5308 26.9766 158.7948 24.5916 157.3228 22.7676 155.8498 20.9436 153.6418 20.0326 150.6988 20.0326 148.7148 20.0326 146.7628 20.4966 144.8428 21.4236 142.9228 22.3526 141.9628 24.1606 141.9628 26.8476 141.9628 29.1516 142.8418 30.9606 144.6028 32.2716 146.3618 33.5836 149.0978 35.0076 152.8108 36.5436 156.3938 38.0796 159.3058 39.5196 161.5468 40.8646 163.7858 42.2076 165.7058 44.1126 167.3068 46.5766 168.9058 49.0396 169.7068 52.1606 169.7068 55.9356 169.7068 60.4156 168.6658 64.2876 166.5868 67.5516 164.5068 70.8156 161.6428 73.2966 157.9948 74.9926 154.3468 76.6866 150.2508 77.5366 145.7068 77.5366 142.1858 77.5366 138.7468 76.9266 135.3868 75.7116 132.0268 74.4966 129.2578 72.5606 127.0828 69.9036 124.9058 67.2486 123.8188 63.9036 123.8188 59.8716 123.8188 57.5676 123.9778 55.6166 124.2988 54.0156M179.2104 52.9121C180.4254 44.4331 181.2574 38.6561 181.7064 35.5841L176.6184 35.5841 177.9624 25.8881 183.0504 25.8881 184.9704 11.6801 196.9704 11.6801 194.3784 25.8881 201.6744 25.8881 200.3304 35.5841 193.1304 35.5841C192.6824 38.5281 191.8974 44.0161 190.7784 52.0481 189.6584 60.0801 189.0984 64.2881 189.0984 64.6721 189.0984 66.7841 190.2504 67.8401 192.5544 67.8401L195.7224 67.8401 194.5704 76.3841C193.7374 76.7031 192.6334 76.9741 191.2584 77.2001 189.8814 77.4231 188.6494 77.5361 187.5624 77.5361 183.9774 77.5361 181.3854 76.5761 179.7864 74.6561 178.1864 72.7351 177.3864 70.2401 177.3864 67.1681 177.3864 66.1441 177.9944 61.3921 179.2104 52.9121M218.0898 33.5674C219.3698 30.9444 220.8258 28.8154 222.4578 27.1834 224.0898 25.5514 226.0898 24.7354 228.4578 24.7354 229.6728 24.7354 230.6978 24.8484 231.5298 25.0724 232.3608 25.2964 232.8738 25.4404 233.0658 25.5044L231.6258 36.6394 227.9778 36.6394C225.1608 36.6394 222.7768 37.5374 220.8258 39.3284 218.8728 41.1204 217.6098 44.0964 217.0338 48.2554L213.0978 76.3834 201.7698 76.3834 208.7778 25.8874 218.0898 25.8874 218.0898 33.5674zM259.7524 41.9199C259.7524 39.2959 259.3834 37.3279 258.6484 36.0159 257.9124 34.7049 256.7114 34.0479 255.0484 34.0479 252.8074 34.0479 250.9834 35.1369 249.5764 37.3119 248.1684 39.4879 247.0804 42.2729 246.3124 45.6639L259.5604 45.6639C259.6884 43.8089 259.7524 42.5609 259.7524 41.9199M238.3924 34.8639C241.7524 28.1119 247.5274 24.7349 255.7204 24.7349 266.1514 24.7349 271.3684 30.4639 271.3684 41.9199 271.3684 46.2729 271.0164 50.3049 270.3124 54.0159L245.0644 54.0159C244.9354 55.3589 244.8724 56.8329 244.8724 58.4319 244.8724 61.7609 245.2884 64.2249 246.1204 65.8239 246.9514 67.4239 248.2954 68.2239 250.1524 68.2239 251.9434 68.2239 253.4644 67.3589 254.7124 65.6319 255.9604 63.9029 256.8724 61.6639 257.4484 58.9119L269.2564 58.9119C266.4394 71.3289 259.9114 77.5359 249.6724 77.5359 244.1674 77.5359 240.0724 76.0809 237.3844 73.1679 234.6964 70.2559 233.3524 65.8239 233.3524 59.8719 233.3524 49.9519 235.0324 41.6169 238.3924 34.8639M298.5361 63.5674C300.0071 60.8484 301.0321 57.6644 301.6081 54.0154 302.1841 50.3684 302.4721 47.0074 302.4721 43.9354 302.4721 40.8004 302.0881 38.4634 301.3201 36.9274 300.5521 35.3914 299.2391 34.6244 297.3841 34.6244 294.9511 34.6244 292.9991 36.0634 291.5281 38.9434 290.0551 41.8244 289.0151 45.1044 288.4081 48.7844 287.7991 52.4644 287.4961 55.5854 287.4961 58.1434 287.4961 64.4794 289.2241 67.6474 292.6801 67.6474 295.1111 67.6474 297.0631 66.2894 298.5361 63.5674M305.7361 31.9354 307.6561 25.8874 316.5841 25.8874C315.9441 29.8564 314.7911 37.2804 313.1271 48.1604 311.4631 59.0414 310.6311 64.7054 310.6311 65.1514 310.6311 66.9444 311.4011 67.8394 312.9361 67.8394L314.6641 67.8394 313.5121 76.0004C311.7841 77.0224 309.8951 77.5364 307.8481 77.5364 305.7361 77.5364 304.0081 76.9434 302.6641 75.7594 301.3201 74.5764 300.3911 72.9274 299.8801 70.8154 298.7281 73.0564 297.2071 74.7364 295.3201 75.8554 293.4321 76.9744 291.5591 77.5364 289.7041 77.5364 285.3511 77.5364 281.9911 76.0334 279.6241 73.0234 277.2551 70.0164 276.0721 65.5684 276.0721 59.6794 276.0721 51.9364 276.9671 45.4404 278.7601 40.1914 280.5511 34.9444 282.9031 31.0564 285.8161 28.5274 288.7271 26.0004 291.8481 24.7354 295.1761 24.7354 300.2951 24.7354 303.8161 27.1354 305.7361 31.9354M336.4546 32.416C339.7816 27.296 344.0066 24.735 349.1266 24.735 352.0076 24.735 354.3426 25.456 356.1356 26.895 357.9266 28.336 359.1416 30.368 359.7826 32.992 361.4466 30.433 363.3346 28.417 365.4466 26.943 367.5586 25.473 370.0866 24.735 373.0306 24.735 376.6796 24.735 379.4626 25.873 381.3836 28.144 383.3036 30.416 384.2636 33.601 384.2636 37.695 384.2636 38.593 384.1186 40.177 383.8306 42.448 383.5426 44.721 383.0156 48.544 382.2466 53.92 381.8626 57.057 381.3976 60.513 380.8546 64.288 380.3096 68.064 379.7506 72.097 379.1756 76.384L367.7506 76.384 370.9186 53.632C371.5586 49.345 371.9896 46.288 372.2156 44.464 372.4376 42.64 372.5516 41.408 372.5516 40.768 372.5516 37.057 370.9816 35.2 367.8476 35.2 365.8626 35.2 364.0696 36.16 362.4716 38.08 360.8706 40 359.8466 42.656 359.3986 46.048L355.3666 76.384 343.9426 76.384 347.1106 53.344C347.6866 49.185 348.0856 46.208 348.3106 44.416 348.5346 42.625 348.6466 41.408 348.6466 40.768 348.6466 37.057 347.1106 35.2 344.0386 35.2 341.9896 35.2 340.1826 36.145 338.6146 38.032 337.0456 39.92 336.0376 42.592 335.5916 46.048L331.4626 76.384 320.0386 76.384 327.1426 25.888 336.4546 25.888 336.4546 32.416zM44.054 72.415 52.885 9.999 39.856 9.999 31.22 71.534C29.982 79.967 25.236 81.735 21.472 81.735 15.725 81.735 12.688 78.782 12.688 73.195 12.688 72.419 12.906 70.498 13.354 67.34L1.063 67.34C.189 73.715 0 75.973 0 76.733 0 81.987 1.756 85.858 5.368 88.567 9.038 91.32 14.456 92.715 21.472 92.715 27.879 92.715 33.064 90.973 36.882 87.538 40.711 84.092 43.124 79.004 44.054 72.415"/>
  <path fill="#86d9ff" d="m 431.3426,41.486838 c 3.52606,0 3.52606,0 4.611,0.09041 4.24936,0.452059 6.78089,2.260295 7.59459,5.334296 0.18083,0.723295 0.27124,1.537001 0.27124,2.350707 0,2.350707 -0.7233,4.791825 -1.98906,6.780885 -2.2603,3.435648 -5.24389,5.153472 -9.04118,5.153472 -5.15347,0 -8.04665,-2.53153 -8.13706,-6.961708 0,-2.079472 0,-2.079472 -0.0904,-2.893178 h -12.296 c -0.0904,0.361648 -0.0904,0.632883 -0.18082,0.813706 -0.27124,1.446589 -0.36165,2.893178 -0.36165,4.339767 0,7.142532 3.70688,12.476828 10.03571,14.465887 2.62194,0.813706 5.42471,1.265765 8.49871,1.265765 8.86035,0 16.00289,-2.983589 20.61389,-8.58912 3.61647,-4.52059 5.87676,-10.939828 5.87676,-16.726183 0,-4.882237 -1.98906,-8.408297 -6.50964,-11.120651 7.23294,-4.430178 10.84941,-10.306944 10.84941,-17.449476 0,-8.6795329 -6.60006,-13.6521817 -18.08236,-13.6521817 -7.77541,0 -14.01383,2.3507067 -18.17277,6.9617087 -3.34524,3.616471 -4.97265,7.504179 -6.32883,14.556299 h 11.66313 c 0.8137,-3.52606 1.35617,-5.243884 2.26029,-6.780885 1.71783,-2.983589 4.70141,-4.611001 8.31789,-4.611001 4.15894,0 6.9617,2.53153 6.9617,6.328825 0,5.605532 -3.43564,9.945298 -8.86035,11.301475 -1.537,0.361647 -2.89318,0.542471 -4.70141,0.542471 h -0.99453 z" aria-label="3" font-family="Helvetica" font-size="90.4118px" font-style="italic" font-weight="700" style="-inkscape-font-specification:&quot;Helvetica Bold Italic&quot;" transform="scale(0.94178985,1.061808)"/>
</svg>
